<svg id="Grupo_3505" data-name="Grupo 3505" xmlns="http://www.w3.org/2000/svg" width="78.731" height="80.342" viewBox="0 0 78.731 80.342">
  <path id="Trazado_2056" data-name="Trazado 2056" d="M-541.49-19.834q-7.182,0-14.364,0a8.257,8.257,0,0,1-3.621-.709,3.733,3.733,0,0,0-1.686-.257q-8.979,0-17.957,0c-1.948,0-2.242-.292-2.243-2.21,0-5.631-.017-11.262.011-16.893a3.624,3.624,0,0,0-.7-2.21q-5.591-8.013-11.131-16.06A12.992,12.992,0,0,1-590.6-75.935c4.82-3.976,9.585-8.018,14.379-12.025a4.567,4.567,0,0,1,1.386-1.01c1.8-.544,2.427-1.943,3.177-3.5a12.5,12.5,0,0,1,10.6-7.408,29.562,29.562,0,0,1,9.007.244A12.783,12.783,0,0,1-541.687-87.98a69.31,69.31,0,0,1-.136,13.279c-.9,7.06-7.373,12.771-14.464,13.108a15.572,15.572,0,0,1-12.533-4.651,18.471,18.471,0,0,1-3.036-4.01c-.484-.883-.8-.693-1.341-.184-1.263,1.177-2.531,2.349-3.824,3.492-.439.388-.6.678-.131,1.174q2.228,2.373,4.394,4.805c.531.6,1.2.489,1.85.489q11.7.011,23.408,0,2.261,0,4.522-.006a11.062,11.062,0,0,1,9.406,4.634q7.49,10.167,14.816,20.454a9.313,9.313,0,0,1,.651,10.3,9.4,9.4,0,0,1-8.62,5.277c-4.92.1-9.843.025-14.764.025Zm-21.577-3.544c-.2-.506-.341-.866-.486-1.224a7.891,7.891,0,0,1,7.407-11.138,27.5,27.5,0,0,1,2.79,0c.9.078,1.23-.312,1.385-1.136,1.23-6.524,2.463-13.048,3.758-19.56.245-1.23-.085-1.469-1.286-1.458-6.869.059-13.739-.035-20.607.066-2.2.032-4.127-.118-5.4-2.2-.269-.441-.656-.67-1.2-.2q-4.334,3.725-8.707,7.4a.7.7,0,0,0-.14,1.116c1.93,2.757,3.72,5.622,5.79,8.267a4.208,4.208,0,0,1,.973,2.854c-.016,5.318.01,10.636-.024,15.954-.006.957.24,1.339,1.269,1.289,1.813-.087,3.633-.035,5.45-.036C-569.127-23.38-566.166-23.378-563.067-23.378Zm21.56-34.074c0,2.583-.009,4.832,0,7.08.006.914-.115,1.82-1.245,1.8s-1.367-.888-1.379-1.885q-.037-2.988-.184-5.975c-.021-.436.05-1.123-.634-1.129s-.553.671-.639,1.116q-1.4,7.236-2.789,14.474-1.909,9.842-3.84,19.68c-.168.852.088,1.264.992,1.214,1.1-.062,2.21-.137,3.316-.147q8.906-.076,17.813-.112c.985,0,1.363-.25.982-1.31-.806-2.244-1.424-4.559-2.291-6.778-2.24-5.728-4.116-11.584-6.227-17.356C-538.9-50.249-540.155-53.726-541.507-57.452ZM-593-66.422a10.429,10.429,0,0,0,1.577,6.151c1.077,1.624,2.228,3.2,3.263,4.849.5.8.837.894,1.579.237,2.187-1.939,4.446-3.8,6.68-5.683,2.029-1.712,2.031-1.71.238-3.739-.235-.266-.467-.534-.71-.791a1.382,1.382,0,0,1,.156-2.278c4.091-3.449,8.145-6.943,12.289-10.327a5.381,5.381,0,0,0,1.057-7.559,5.112,5.112,0,0,0-7.343-.652q-7.625,6.315-15.191,12.7A9.691,9.691,0,0,0-593-66.422Zm33.464-18.037c-.886,0-1.776.047-2.658-.013-.915-.062-1.186.158-1.06,1.171a7.182,7.182,0,0,1-2.035,6.194c-1.3,1.34-2.874,2.359-4.179,3.688-.566.577-.773.966-.228,1.789a32.855,32.855,0,0,0,2.195,2.982c5.974,7.137,17.824,5.633,21.908-2.733,1.723-3.53,1.357-7.254,1.387-10.96,0-.638-.535-.617-.947-.7A86.738,86.738,0,0,0-559.537-84.459Zm39.994,54.721a7.126,7.126,0,0,0-1.189-3.878c-2.418-3.38-4.853-6.748-7.275-10.125-.325-.454-.614-.66-1.186-.279-1.066.71-2.181,1.349-3.3,1.983a.775.775,0,0,0-.374,1.1q3.178,8.856,6.323,17.724c.238.675.58.724,1.189.614A7.369,7.369,0,0,0-519.543-29.738ZM-561.522-87.1c5.105.332,10.245.321,15.3,1.246,2.037.373,2.148.287,2-1.737-.02-.263-.086-.523-.115-.786a1.771,1.771,0,0,0-1.727-1.774,39.319,39.319,0,0,0-4.231-.252,34.76,34.76,0,0,0-14.158,2.28c-.249.1-.7.087-.575.55a.67.67,0,0,0,.72.472Zm23.385,30.638c-.042.146-.1.237-.081.3,1.313,3.757,2.645,7.508,3.943,11.27.243.7.561.618,1.061.3a27.377,27.377,0,0,1,2.4-1.419c.734-.372.656-.735.227-1.311-1.663-2.237-3.273-4.513-4.934-6.751A7.537,7.537,0,0,0-538.137-56.466Zm-8.209-36.361c-.958-1.419-1.824-2.683-3.244-2.73-3.232-.108-6.116,1.163-8.844,2.835A57.056,57.056,0,0,1-546.346-92.826Zm-20.164-1.93c1.295.23,2.369.4,3.433.618a1.766,1.766,0,0,0,1.405-.063c1.782-1.11,3.669-2.021,5.566-2.957C-559.724-97.408-563.307-97.56-566.51-94.756ZM-556.188-23.4c-.06.47-.065.9.571.973.62.075.867-.239.975-.8.588-3.042,1.192-6.08,1.789-9.12.069-.352.175-.753-.353-.821s-.948.015-1.081.671C-554.9-29.468-555.55-26.438-556.188-23.4Zm-7.453-67.991a12.754,12.754,0,0,0-4.692-.642c-.95.077-.967.9-1.294,1.473-.123.218-.091.5.163.536.636.1,1.229.517,1.923.222C-566.34-90.315-565.126-90.792-563.641-91.395Zm2.508,61.726c-1.087,2.383-.047,5.421,1.943,6.014Zm3.116,1.132h.256c.25-1.142.524-2.28.737-3.429.063-.34.421-.859-.081-1.039-.55-.2-1.089.186-1.61.409a.59.59,0,0,0-.367.841C-558.721-30.685-558.371-29.61-558.017-28.537Z" transform="translate(595.588 100.108)" fill="#004693"/>
  <path id="Trazado_2057" data-name="Trazado 2057" d="M-489.85-20.038a6.04,6.04,0,0,1,4.009,1.756c.674.64.883,1.391.234,2.09-.631.68-1.324.414-1.974-.152-1.725-1.5-3.018-1.523-4.816-.059-.717.584-1.432.825-2.087.075-.673-.77-.254-1.48.387-2.071A6.288,6.288,0,0,1-489.85-20.038Z" transform="translate(528.686 46.943)" fill="#004693"/>
</svg>
