<svg id="Grupo_3508" data-name="Grupo 3508" xmlns="http://www.w3.org/2000/svg" width="78.317" height="83.133" viewBox="0 0 78.317 83.133">
  <path id="Trazado_2169" data-name="Trazado 2169" d="M-504.425,1276.015a23.771,23.771,0,0,1-1.851,3.351c-.251.374-.5.75-.774,1.107a1.627,1.627,0,0,1-2.256.35,1.573,1.573,0,0,1-.3-2.259,22.65,22.65,0,0,0,4.292-11.766,37.45,37.45,0,0,0-.626-10.639,59.507,59.507,0,0,0-1.979-8.118,17.468,17.468,0,0,0-2.279-4.635,1.356,1.356,0,0,1,.187-2.123,1.774,1.774,0,0,1,2.4.175,14.5,14.5,0,0,1,2.037,3.364,38.422,38.422,0,0,1,2.94,10.353,49.4,49.4,0,0,1,.715,9.2c-.072,2.413-.21,4.824-.158,7.239a5.651,5.651,0,0,0,1.224,3.774,4.15,4.15,0,0,0,4.309,1.482,4.065,4.065,0,0,0,3.1-3.259,20.015,20.015,0,0,0,.213-4.036c.12-4.416.044-8.833-.115-13.246a37.492,37.492,0,0,0-4.786-17.158,35.978,35.978,0,0,0-9.035-10.643c-1.194-.954-2.479-1.795-3.722-2.686a1.062,1.062,0,0,0-.571-.128c-1.965-.166-3.928.049-5.892.021a1.457,1.457,0,0,1-1.549-1.087,1.6,1.6,0,0,1,1.551-2.164c1.8-.013,3.593-.232,5.4-.141a9.292,9.292,0,0,1,4.317,1.4,28.06,28.06,0,0,1,6.856,6.129,46.556,46.556,0,0,1,5.334,7.392,38.98,38.98,0,0,1,3.307,7.666,50.813,50.813,0,0,1,2.113,15.081c0,2.6.3,5.181.367,7.776a23.275,23.275,0,0,1-.637,6.7c-.686,2.528-2.034,4.531-4.646,5.409a7.663,7.663,0,0,1-7.343-1.276A7.323,7.323,0,0,1-504.425,1276.015Z" transform="translate(567.953 -1198)" fill="#004693"/>
  <path id="Trazado_2170" data-name="Trazado 2170" d="M-820.324,1276.088a7.716,7.716,0,0,1-1.941,2.4,7.59,7.59,0,0,1-7.262,1.444,6.813,6.813,0,0,1-4.915-5.559,11.564,11.564,0,0,1-.26-2.2c-.006-4.74-.064-9.483.03-14.221a46.621,46.621,0,0,1,1.989-12.77,38.417,38.417,0,0,1,5.962-11.849,53.362,53.362,0,0,1,5.181-6.078,20.9,20.9,0,0,1,5.608-4.162,9.8,9.8,0,0,1,4.637-.789c1.261.037,2.52.1,3.781.152a1.514,1.514,0,0,1,1.6,1.646,1.463,1.463,0,0,1-1.618,1.6c-1.3-.013-2.595-.058-3.891-.114a5.1,5.1,0,0,0-3.56,1.041,59.107,59.107,0,0,0-4.777,3.788,36.928,36.928,0,0,0-6.883,8.824,37.96,37.96,0,0,0-4.244,12.167,43.407,43.407,0,0,0-.556,7.265q-.008,6.272.021,12.545a7.163,7.163,0,0,0,1.21,4.188,3.641,3.641,0,0,0,5.087,1.081,4.857,4.857,0,0,0,2.4-4.05c.113-1,.037-2.019.1-3.022.146-2.485-.309-4.95-.136-7.438a68.938,68.938,0,0,1,1.722-11.358,28.057,28.057,0,0,1,2.99-7.834,6.943,6.943,0,0,1,1-1.4,1.82,1.82,0,0,1,2.873.516,1.085,1.085,0,0,1-.107,1.131,26.106,26.106,0,0,0-4.079,10.48,45.778,45.778,0,0,0-1.1,12.173,24.442,24.442,0,0,0,3.627,11.735,1.611,1.611,0,0,1-.463,2.391,1.574,1.574,0,0,1-2.336-.634A26.931,26.931,0,0,1-820.324,1276.088Z" transform="translate(834.725 -1197.979)" fill="#004693"/>
  <path id="Trazado_2171" data-name="Trazado 2171" d="M-663.016,1369.753a15.876,15.876,0,0,1-2.561,8.191,33.172,33.172,0,0,1-12.13,11.441c-.545.316-1.1.617-1.665.893a3.163,3.163,0,0,1-2.915.024,35.967,35.967,0,0,1-9.847-7.2,24.413,24.413,0,0,1-5.778-8.955,11.113,11.113,0,0,1-.286-7.622,8.628,8.628,0,0,1,6.682-6.028,7.914,7.914,0,0,1,5.212.971,17.977,17.977,0,0,1,5.127,4.159c.244.274.357.32.634.008a18.125,18.125,0,0,1,5.359-4.292,7.9,7.9,0,0,1,10.1,2.291A9.489,9.489,0,0,1-663.016,1369.753Zm-32.411.24a13.294,13.294,0,0,0,2.417,6.763,31.321,31.321,0,0,0,11.715,10.389.8.8,0,0,0,.849.01,32.179,32.179,0,0,0,10.908-9.168,16.217,16.217,0,0,0,2.972-6.068c.529-2.333.392-4.544-1.279-6.454a4.528,4.528,0,0,0-5.925-1.134,15.833,15.833,0,0,0-4.932,4.214,2.539,2.539,0,0,1-4.257.049,15.492,15.492,0,0,0-5.261-4.4,4.244,4.244,0,0,0-4.545.286A6.288,6.288,0,0,0-695.427,1369.993Z" transform="translate(719.841 -1314.647)" fill="#004693"/>
  <path id="Trazado_2172" data-name="Trazado 2172" d="M-657.878,1079.162a15.54,15.54,0,0,1,4.783-11.015,10.067,10.067,0,0,1,12.678-.705,14.285,14.285,0,0,1,4.961,7.778c1.409,4.876.362,9.344-2.383,13.462a10.029,10.029,0,0,1-11.51,4.129,10.853,10.853,0,0,1-5.77-4.493A16.257,16.257,0,0,1-657.878,1079.162Zm3.289.137a8.409,8.409,0,0,0,.108,1.621,11.566,11.566,0,0,0,3.863,7.556,6.833,6.833,0,0,0,8.585.028,11.877,11.877,0,0,0,3.922-9.255,12.485,12.485,0,0,0-2.233-7.056,6.931,6.931,0,0,0-11-1.175A11.942,11.942,0,0,0-654.589,1079.3Z" transform="translate(685.309 -1065.527)" fill="#004693"/>
  <path id="Trazado_2173" data-name="Trazado 2173" d="M-643.259,1427.43c-.46,1.585-1.612,1.77-2.975,1.708-1.385-.062-2.775,0-4.163-.017a1.621,1.621,0,0,1-1.6-2.255,1.486,1.486,0,0,1,1.579-1.056q1.865-.02,3.731,0a.607.607,0,0,0,.687-.423c.478-1.125,1.024-2.222,1.527-3.337A1.411,1.411,0,0,1-643,1421.1a1.816,1.816,0,0,1,1.614,1.24c.474,1.49.936,2.984,1.4,4.476.058.184.119.368.2.626a3.563,3.563,0,0,0,.467-.945,1.752,1.752,0,0,1,1.791-1.2c1.694.02,3.388,0,5.082.006a1.472,1.472,0,0,1,1.483.966,1.691,1.691,0,0,1-.322,1.859,1.512,1.512,0,0,1-1.221.463c-1.225,0-2.451.015-3.677-.011a.594.594,0,0,0-.663.462c-.5,1.293-1.007,2.58-1.547,3.855a1.7,1.7,0,0,1-2.626.786,1.909,1.909,0,0,1-.561-.966c-.523-1.646-1.038-3.293-1.557-4.94C-643.169,1427.662-643.216,1427.547-643.259,1427.43Z" transform="translate(680.435 -1365.946)" fill="#004693"/>
</svg>
