<svg id="Grupo_3506" data-name="Grupo 3506" xmlns="http://www.w3.org/2000/svg" width="91.825" height="84.53" viewBox="0 0 91.825 84.53">
  <path id="Trazado_2045" data-name="Trazado 2045" d="M760.008,331.086c3.288,3.695,6.442,7.2,9.548,10.757.687.785.978.241,1.408-.2,2.747-2.836,5.6-5.578,8.229-8.519a14.479,14.479,0,0,1,9.756-4.77c6.8-.75,13.57-1.708,20.345-2.643,3.433-.474,6.508-.041,8.485,3.162a7,7,0,0,1-5.111,10.641c-6.883.981-13.769,1.983-20.685,2.657-2.439.237-3.537,1.778-5.014,3.256.521.492,1.081.19,1.574.172,4.608-.165,8.166,1.638,10.236,5.8,3.142,6.32,6.168,12.7,9.159,19.092a6.972,6.972,0,0,1-3.285,9.348,7.065,7.065,0,0,1-9.523-3.584c-2.369-4.968-4.717-9.947-6.974-14.966a1.823,1.823,0,0,0-2.273-1.247c-5.513.726-11.033,1.393-16.555,2.049a7.389,7.389,0,0,1-6.781-2.754c-4.576-5.223-9.225-10.382-14.045-15.791-.855,1.954-1.6,3.706-2.39,5.44-.356.783.286,1.126.641,1.555,3.264,3.942,6.6,7.826,9.818,11.8a5.359,5.359,0,0,1-3.428,8.868,4.9,4.9,0,0,1-4.644-1.73c-4.214-4.959-8.414-9.933-12.521-14.981a6.775,6.775,0,0,1-.942-7.246q3.7-8.753,7.582-17.432a10.566,10.566,0,0,1,5.851-5.648c4.327-1.752,8.6-3.648,12.921-5.405a1.9,1.9,0,0,0,1.362-1.954c.259-5,.591-10,.918-15,.219-3.343,2.639-5.627,5.741-5.458s5.211,2.717,5.013,6.1c-.348,5.942-.782,11.881-1.074,17.826a7.817,7.817,0,0,1-5.387,7.459C765.347,328.781,762.77,329.92,760.008,331.086Zm11.482,16.5c-4.6-5.178-8.962-10.069-13.295-14.985-.507-.575-.937-.367-1.468-.143-1.792.756-3.593,1.491-5.391,2.233-.906.374-1.587.131-1.739-.859-.136-.89.594-1.211,1.287-1.5q8.3-3.483,16.6-6.976a5.182,5.182,0,0,0,3.485-4.67q.586-9.078,1.083-18.162c.129-2.341-.931-3.669-2.834-3.732-1.92-.063-3.1,1.174-3.238,3.414-.262,4.332-.494,8.665-.778,13-.309,4.718-.341,4.684-4.683,6.467-4.009,1.647-8.078,3.19-11.949,5.121-3.952,1.971-6.14,6.643-2.211,10.87,5.982,6.435,11.785,13.042,17.543,19.68a6.345,6.345,0,0,0,6.179,2.333c5.677-.764,11.376-1.365,17.051-2.144a2.1,2.1,0,0,1,2.554,1.46q3.761,8.183,7.645,16.308a4.644,4.644,0,1,0,8.4-3.94q-4.453-9.424-9-18.8a7.847,7.847,0,0,0-5.541-4.419c-2.4-.543-4.763.09-7.125.353-5.3.59-10.6,1.271-15.9,1.913-.845.1-1.655.011-1.739-1.032-.075-.929.655-1.183,1.429-1.287Zm44.956-15.157a3.96,3.96,0,0,0-.827-2.53c-1.476-2.072-3.538-2.182-5.815-1.869-7.317,1.006-14.639,1.992-21.969,2.893a9.456,9.456,0,0,0-5.869,2.811c-2.982,3.063-5.975,6.116-8.906,9.227-.413.439-1.611.786-.92,1.629.83,1.013,1.367,2.631,3,2.58,4.616-.143,9.069-.767,11.839-5.187a9.493,9.493,0,0,1,.806-.84,3.077,3.077,0,0,1,2.17-1.069c2.922-.345,5.84-.728,8.759-1.107,4.351-.565,8.705-1.115,13.051-1.718C814.746,336.838,816.408,335.124,816.446,332.429Zm-74.008,3.724c-1.863,4.3-3.667,8.3-5.323,12.364a4.5,4.5,0,0,0,.854,4.706q6.016,7.259,12.091,14.469a2.9,2.9,0,0,0,2.454,1.184,2.933,2.933,0,0,0,2.681-1.688,3.051,3.051,0,0,0-.576-3.544c-3.521-4.161-7-8.359-10.53-12.512a2.183,2.183,0,0,1-.374-2.706c.932-1.894,1.681-3.877,2.586-5.785a1.456,1.456,0,0,0-.283-1.9A20.756,20.756,0,0,1,742.438,336.154Z" transform="translate(-727.018 -296.351)" fill="#004693"/>
  <path id="Trazado_2046" data-name="Trazado 2046" d="M734.963,325.183a9.9,9.9,0,0,1-6.667,9.436,9.58,9.58,0,0,1-10.935-3.15c-1.881-2.45-4.079-4.755-4.8-7.917a9.777,9.777,0,0,1,4.788-10.793,9.662,9.662,0,0,1,11.462,1.158,27.207,27.207,0,0,1,5.42,7.536A7.949,7.949,0,0,1,734.963,325.183Zm-12.53-11.392a7.494,7.494,0,0,0-6.861,4.082,7.016,7.016,0,0,0,.43,7.72q1.4,2.071,2.892,4.075a7.568,7.568,0,0,0,12.274-8.859c-.951-1.367-1.921-2.722-2.925-4.051A7.213,7.213,0,0,0,722.433,313.79Z" transform="translate(-712.302 -306.375)" fill="#004693"/>
  <path id="Trazado_2047" data-name="Trazado 2047" d="M857.5,500.138c.56-.008.914.391,1.293.7q6.686,5.381,13.356,10.783c.7.565,1.333,1.2.621,2.075-.647.8-1.364.377-2.024-.158q-6.8-5.51-13.6-11c-.476-.385-1-.778-.736-1.52A1.156,1.156,0,0,1,857.5,500.138Z" transform="translate(-808.235 -432.077)" fill="#004693"/>
  <path id="Trazado_2048" data-name="Trazado 2048" d="M849.459,538.639c-4.189-.783-8.285-1.544-12.379-2.315-1.309-.246-2.614-.518-3.92-.78-.774-.155-1.22-.622-1.053-1.412s.813-1.014,1.548-.876q8.021,1.511,16.038,3.056a1.146,1.146,0,0,1,1.056,1.423C850.611,538.5,850.017,538.626,849.459,538.639Z" transform="translate(-792.072 -454.109)" fill="#004693"/>
</svg>
