<svg xmlns="http://www.w3.org/2000/svg" width="96.151" height="63.708" viewBox="0 0 96.151 63.708">
  <g id="Grupo_3186" data-name="Grupo 3186" transform="translate(0 0)">
    <path id="Trazado_2128" data-name="Trazado 2128" d="M129.185,407.185c1.09,0,2.1,0,3.115,0,.365,0,.733-.044,1.1-.021a1.338,1.338,0,0,1,1.374,1.453q.009,3.813,0,7.626c0,1.773-.022,3.546-.03,5.318a1.159,1.159,0,0,0,.056.395,19.389,19.389,0,0,1,.961,6.83q-.032,6.274.011,12.548a1.681,1.681,0,0,0,.39,1.014c3.508,3.971,7.054,7.909,10.561,11.881a7.447,7.447,0,1,1-11.968,8.727c-.864-1.547-1.685-3.119-2.5-4.694a.717.717,0,0,0-.753-.46c-2.89.045-5.78.069-8.67.1q-10.462.1-20.923.2a1.306,1.306,0,0,0-.636.2c-1.1.679-2.171,1.4-3.28,2.057a2.515,2.515,0,0,1-1.174.372q-3.035.055-6.071,0a2.4,2.4,0,0,1-1.165-.391c-1.156-.729-2.269-1.529-3.423-2.262a1.9,1.9,0,0,0-.969-.268q-14.019-.021-28.038-.011c-1,0-2,0-2.995,0-1.23-.005-1.656-.435-1.66-1.681,0-1.329,0-2.658,0-3.987q0-20.7,0-41.4c0-.712-.006-1.424,0-2.136a1.356,1.356,0,0,1,1.4-1.423c1.189-.01,2.379,0,3.568.044.933.035.944.051.943-.869,0-.116,0-.231,0-.347.01-1.264.18-1.514,1.348-1.991a16.016,16.016,0,0,1,8.416-.812,40.318,40.318,0,0,1,12.176,4.053,77.337,77.337,0,0,1,10.367,6.133,1.2,1.2,0,0,0,.644.181c1.619.015,3.238.022,4.857-.006a1.627,1.627,0,0,0,.836-.3,71.692,71.692,0,0,1,14.641-7.962A30.291,30.291,0,0,1,121.563,403a15.578,15.578,0,0,1,6.344,1.013,1.788,1.788,0,0,1,1.278,1.88C129.182,406.276,129.185,406.659,129.185,407.185ZM89.267,451.779V451.1q0-17.494.01-34.987a1,1,0,0,0-.494-.943,76.267,76.267,0,0,0-9.192-5.434,40.52,40.52,0,0,0-11.2-3.9,15.6,15.6,0,0,0-6.6.168.906.906,0,0,0-.815,1.054c.026,8.417.017,16.835.017,25.253q0,5,0,10c0,.2.025.4.037.577.967-.151,1.853-.342,2.75-.421a24.11,24.11,0,0,1,9.554,1.326,64.7,64.7,0,0,1,15.286,7.573C88.794,451.486,88.969,451.592,89.267,451.779Zm9.063-.1a58.859,58.859,0,0,1,15.915-8.246,18.018,18.018,0,0,1-5.837-3.259,16.512,16.512,0,0,1-5.842-11.646,16.256,16.256,0,0,1,.918-6.586,16.043,16.043,0,0,1,7.21-8.729,16.563,16.563,0,0,1,15.862-.624c.019-.2.042-.33.042-.461,0-1.671.007-3.343,0-5.014,0-.879-.075-.986-.9-1.169a13.382,13.382,0,0,0-5.438-.271,47.608,47.608,0,0,0-6.32,1.571,63.48,63.48,0,0,0-15.062,7.877,1.138,1.138,0,0,0-.562,1.082q.021,17.346.01,34.692ZM80.959,455.2l.04-.169c-.424-.207-.85-.412-1.274-.621A39.45,39.45,0,0,0,67.85,450.37a13.344,13.344,0,0,0-7.54.808c-1.045.471-1.893-.164-1.893-1.373q0-19.46,0-38.919v-1.144H55.071c0,.615,0,1.186,0,1.757q-.024,21.508-.054,43.016c0,.5.127.7.686.7q11.8-.027,23.594-.011Zm45.81-12.832c.048.1.1.224.162.341q3.445,6.5,6.892,13c1.036,1.954,2.048,3.921,3.118,5.856a4.856,4.856,0,1,0,7.857-5.6c-4.017-4.548-8.065-9.069-12.1-13.6-.765-.859-1.533-1.714-2.27-2.537Zm-34.89-26.214v42.012c1.165,0,2.262-.016,3.358.008.4.009.533-.113.53-.52-.015-2.637-.009-5.275-.009-7.912q0-16.36,0-32.721a2.346,2.346,0,0,0-.017-.575c-.029-.113-.175-.279-.27-.28C94.283,416.152,93.094,416.158,91.879,416.158Zm13.642,8.217a21.466,21.466,0,0,1,13.773-5c5.163.068,9.554,2.177,13.557,5.426a13.963,13.963,0,0,0-27.33-.422Zm27.183,6.47c-.064-.012-.089-.025-.1-.017q-.2.122-.387.251a32.177,32.177,0,0,1-7.811,3.947c-5.966,1.95-11.705,1.752-17.059-1.887-.431-.293-.869-.576-1.359-.9a13.954,13.954,0,0,0,26.718-1.394Zm-2.162,24.382a1.156,1.156,0,0,0-.042-.246c-.522-1.026-1.059-2.044-1.567-3.076a2.077,2.077,0,0,0-1.321-1.013,14.718,14.718,0,0,0-7.425-.407,46.225,46.225,0,0,0-13.034,4.569c-.19.095-.375.2-.563.3l.045.125Zm-3.8-7.285a4.8,4.8,0,0,0-1.012-1.565,3.318,3.318,0,0,0-1.337-.746c-.338-.1-.672-.219-1.017-.29a16.829,16.829,0,0,0-8.275.6c-6.129,1.818-11.479,5.118-16.6,8.832a.419.419,0,0,0-.175.269c-.015.624-.008,1.248-.008,1.865.155.008.2.024.228.009.169-.093.335-.19.5-.291a70.478,70.478,0,0,1,16.052-7.581,25.259,25.259,0,0,1,10.54-1.254C125.967,447.829,126.3,447.881,126.738,447.942Zm-8.058-14.474a5.672,5.672,0,1,0,.017-11.344,5.74,5.74,0,0,0-5.686,5.721A5.675,5.675,0,0,0,118.68,433.468ZM61,448.16a19.115,19.115,0,0,1,9.656.094,41.082,41.082,0,0,1,10.221,3.91q3.165,1.721,6.305,3.487c.676.38,1.314.829,2.087,1.321,0-.636.032-1.149-.014-1.655a.973.973,0,0,0-.313-.648c-.925-.655-1.853-1.316-2.834-1.88-2.184-1.253-4.364-2.522-6.611-3.654a35.739,35.739,0,0,0-12.749-4.073,12.968,12.968,0,0,0-5.257.487c-.186.06-.457.25-.467.4C60.973,446.649,61,447.359,61,448.16Zm50.5-24.432a18.745,18.745,0,0,0-5.651,3.879c-.292.289-.3.476-.049.76a14.535,14.535,0,0,0,3.94,3.324c.675.368,1.4.643,2.1.96a10.237,10.237,0,0,1-1.372-4.37A8.071,8.071,0,0,1,111.5,423.727Zm14.319-.25a8.636,8.636,0,0,1,.316,7.988,26.134,26.134,0,0,0,6.162-3.7A21.759,21.759,0,0,0,125.818,423.478Zm3.369-13.768c0,1.516-.012,2.935.015,4.353,0,.166.2.35.339.489.724.716,1.466,1.414,2.186,2.133.11.109.11.109.256.261l.008.007a.132.132,0,0,0,.212-.106c0-2.252,0-4.5-.014-6.756,0-.128-.2-.36-.311-.364C131,409.7,130.124,409.709,129.187,409.709Zm3.911,29.149v-2.244C131.944,438.1,131.943,437.665,133.1,438.859Z" transform="translate(-52.499 -402.975)" fill="#004693"/>
    <path id="Trazado_2129" data-name="Trazado 2129" d="M603.161,637.182c-1.155-1.194-1.153-.755,0-2.244Z" transform="translate(-522.562 -601.298)" fill="#004693"/>
    <path id="Trazado_2130" data-name="Trazado 2130" d="M489.637,555.962a3.006,3.006,0,0,1,3.042-3.031,3.085,3.085,0,1,1-.045,6.169A3.03,3.03,0,0,1,489.637,555.962Zm3.585.045a.5.5,0,1,0-.5.5A.5.5,0,0,0,493.222,556.007Z" transform="translate(-426.241 -531.185)" fill="#004693"/>
  </g>
</svg>
