<svg id="Grupo_2548" data-name="Grupo 2548" xmlns="http://www.w3.org/2000/svg" width="78.849" height="70.158" viewBox="0 0 78.849 70.158">
  <path id="Trazado_2058" data-name="Trazado 2058" d="M-923.435-120.466q-15.962,0-31.925,0c-4.063-.005-6.753-2.254-7.36-6.127a7.319,7.319,0,0,1,1.244-4.875q12.578-21.755,25.136-43.522,3.391-5.873,6.779-11.748c3-5.18,9.471-5.156,12.476.046q15.891,27.509,31.777,55.02c2,3.456,1.806,6.592-.519,9.064a7.122,7.122,0,0,1-5.539,2.157Q-907.4-120.493-923.435-120.466Zm.1-4.438q15.675,0,31.351.007c1.28,0,2.5-.04,3.249-1.31s.065-2.276-.535-3.314q-15.781-27.323-31.549-54.652c-.578-1-1.222-1.88-2.458-1.911-1.312-.033-1.991.871-2.6,1.921q-9.9,17.2-19.832,34.381-5.961,10.324-11.933,20.641c-.646,1.113-.965,2.173-.052,3.292a3.134,3.134,0,0,0,2.717.95Q-939.149-124.913-923.331-124.9Z" transform="translate(962.787 190.613)" fill="#004693"/>
  <path id="Trazado_2059" data-name="Trazado 2059" d="M-830.128-126.632c-.4,3.763-.819,7.78-1.254,11.8-.451,4.157-.878,8.319-1.415,12.465-.092.707.341,2.046-.854,2.024-1.009-.019-.68-1.288-.76-1.984-.89-7.743-1.723-15.493-2.547-23.243a15.567,15.567,0,0,1-.055-2.71,3.705,3.705,0,0,1,3.19-3.5c1.626-.164,2.984.986,3.515,2.908A13.474,13.474,0,0,1-830.128-126.632Z" transform="translate(873.053 148.641)" fill="#004693"/>
  <path id="Trazado_2060" data-name="Trazado 2060" d="M-833.619,3.07A3.352,3.352,0,0,1-837-.386a3.455,3.455,0,0,1,3.4-3.336,3.548,3.548,0,0,1,3.436,3.355A3.472,3.472,0,0,1-833.619,3.07Z" transform="translate(873.019 57.237)" fill="#004693"/>
</svg>
